<?xml version="1.0" encoding="UTF-8" standalone="no"?>
<!-- Created with Inkscape (http://www.inkscape.org/) -->

<svg
   width="210mm"
   height="297mm"
   viewBox="0 0 210 297"
   version="1.1"
   id="svg5"
   inkscape:version="1.2.2 (b0a8486541, 2022-12-01)"
   sodipodi:docname="Escala_112.5.svg"
   xmlns:inkscape="http://www.inkscape.org/namespaces/inkscape"
   xmlns:sodipodi="http://sodipodi.sourceforge.net/DTD/sodipodi-0.dtd"
   xmlns="http://www.w3.org/2000/svg"
   xmlns:svg="http://www.w3.org/2000/svg">
  <sodipodi:namedview
     id="namedview7"
     pagecolor="#ffffff"
     bordercolor="#666666"
     borderopacity="1.0"
     inkscape:showpageshadow="2"
     inkscape:pageopacity="0.0"
     inkscape:pagecheckerboard="0"
     inkscape:deskcolor="#d1d1d1"
     inkscape:document-units="mm"
     showgrid="true"
     showguides="true"
     inkscape:zoom="0.7349537"
     inkscape:cx="161.23465"
     inkscape:cy="560.57953"
     inkscape:window-width="1920"
     inkscape:window-height="1014"
     inkscape:window-x="3200"
     inkscape:window-y="0"
     inkscape:window-maximized="1"
     inkscape:current-layer="layer1">
    <inkscape:grid
       type="xygrid"
       id="grid387" />
  </sodipodi:namedview>
  <defs
     id="defs2">
    <inkscape:path-effect
       effect="ruler"
       id="path-effect444"
       is_visible="true"
       lpeversion="1"
       unit="mm"
       mark_distance="11.25"
       mark_length="14"
       minor_mark_length="7"
       major_mark_steps="10"
       shift="0"
       offset="0"
       mark_dir="left"
       border_marks="both" />
    <inkscape:path-effect
       effect="ruler"
       id="path-effect391"
       is_visible="true"
       lpeversion="1"
       unit="mm"
       mark_distance="11.25"
       mark_length="20"
       minor_mark_length="10"
       major_mark_steps="10"
       shift="0"
       offset="0"
       mark_dir="left"
       border_marks="both" />
    <inkscape:path-effect
       effect="ruler"
       id="path-effect275"
       is_visible="true"
       lpeversion="1"
       unit="mm"
       mark_distance="11.25"
       mark_length="25"
       minor_mark_length="7"
       major_mark_steps="5"
       shift="0"
       offset="-34"
       mark_dir="left"
       border_marks="both" />
    <inkscape:path-effect
       effect="ruler"
       id="path-effect444-3"
       is_visible="true"
       lpeversion="1"
       unit="mm"
       mark_distance="11.25"
       mark_length="14"
       minor_mark_length="7"
       major_mark_steps="10"
       shift="0"
       offset="0"
       mark_dir="left"
       border_marks="both" />
    <inkscape:path-effect
       effect="ruler"
       id="path-effect444-7"
       is_visible="true"
       lpeversion="1"
       unit="mm"
       mark_distance="11.25"
       mark_length="14"
       minor_mark_length="7"
       major_mark_steps="10"
       shift="0"
       offset="0"
       mark_dir="left"
       border_marks="both" />
    <inkscape:path-effect
       effect="ruler"
       id="path-effect444-35"
       is_visible="true"
       lpeversion="1"
       unit="mm"
       mark_distance="11.25"
       mark_length="14"
       minor_mark_length="7"
       major_mark_steps="10"
       shift="0"
       offset="0"
       mark_dir="left"
       border_marks="both" />
    <inkscape:path-effect
       effect="ruler"
       id="path-effect444-9"
       is_visible="true"
       lpeversion="1"
       unit="mm"
       mark_distance="11.25"
       mark_length="14"
       minor_mark_length="7"
       major_mark_steps="10"
       shift="0"
       offset="0"
       mark_dir="left"
       border_marks="both" />
    <inkscape:path-effect
       effect="ruler"
       id="path-effect444-2"
       is_visible="true"
       lpeversion="1"
       unit="mm"
       mark_distance="11.25"
       mark_length="14"
       minor_mark_length="7"
       major_mark_steps="10"
       shift="0"
       offset="0"
       mark_dir="left"
       border_marks="both" />
    <inkscape:path-effect
       effect="ruler"
       id="path-effect444-0"
       is_visible="true"
       lpeversion="1"
       unit="mm"
       mark_distance="11.25"
       mark_length="14"
       minor_mark_length="7"
       major_mark_steps="10"
       shift="0"
       offset="0"
       mark_dir="left"
       border_marks="both" />
  </defs>
  <g
     inkscape:label="Capa 1"
     inkscape:groupmode="layer"
     id="layer1">
    <path
       style="fill:none;stroke:#000000;stroke-width:0.66;stroke-linecap:butt;stroke-linejoin:miter;stroke-dasharray:none;stroke-opacity:1"
       d="M 16.379586,10.570743 16.606971,235.29458 M 16.379586,10.570743 30.379579,10.556577 m -13.98861,11.26416 6.999997,-0.0071 m -6.988614,11.257077 6.999997,-0.0071 m -6.988613,11.257077 6.999996,-0.0071 m -6.988613,11.257077 6.999996,-0.0071 m -6.988613,11.257077 6.999996,-0.0071 m -6.988613,11.257077 6.999997,-0.0071 m -6.988613,11.257077 6.999996,-0.0071 m -6.988613,11.25708 6.999996,-0.007 m -6.988613,11.25708 6.999996,-0.007 m -6.988613,11.25708 13.999993,-0.0142 m -13.98861,11.26416 6.999997,-0.007 m -6.988613,11.25707 6.999996,-0.007 m -6.988613,11.25708 6.999996,-0.007 m -6.988613,11.25707 6.999996,-0.007 m -6.988613,11.25708 6.999997,-0.007 m -6.988614,11.25708 6.999997,-0.007 m -6.988613,11.25708 6.999996,-0.007 m -6.988613,11.25708 6.999996,-0.007 m -6.988613,11.25707 6.999997,-0.007 m -6.988893,10.98103 13.999993,-0.0142"
       id="path442"
       inkscape:path-effect="#path-effect444"
       inkscape:original-d="M 16.379586,10.570743 16.606971,235.29458" />
    <path
       style="fill:none;stroke:#000000;stroke-width:0.66;stroke-linecap:butt;stroke-linejoin:miter;stroke-dasharray:none;stroke-opacity:1"
       d="M 58.472444,10.460374 58.699829,235.1842 M 58.472444,10.460374 72.472437,10.446208 m -13.98861,11.26416 6.999997,-0.0071 m -6.988614,11.257077 6.999997,-0.0071 m -6.988613,11.257077 6.999996,-0.0071 m -6.988613,11.257077 6.999996,-0.0071 m -6.988613,11.257077 6.999996,-0.0071 m -6.988613,11.257077 6.999997,-0.0071 m -6.988613,11.257077 6.999996,-0.0071 m -6.988613,11.257079 6.999996,-0.007 m -6.988613,11.25707 6.999996,-0.007 m -6.988613,11.25708 13.999993,-0.0142 m -13.98861,11.26416 6.999997,-0.007 m -6.988613,11.25707 6.999996,-0.007 m -6.988613,11.25708 6.999996,-0.007 m -6.988613,11.25707 6.999996,-0.007 m -6.988613,11.25708 6.999997,-0.007 m -6.988614,11.25708 6.999997,-0.007 m -6.988613,11.25708 6.999996,-0.007 m -6.988613,11.25708 6.999996,-0.007 m -6.988613,11.25707 6.999997,-0.007 m -6.988893,10.98102 13.999993,-0.0142"
       id="path442-6"
       inkscape:path-effect="#path-effect444-3"
       inkscape:original-d="M 58.472444,10.460374 58.699829,235.1842" />
    <path
       style="fill:none;stroke:#000000;stroke-width:0.66;stroke-linecap:butt;stroke-linejoin:miter;stroke-dasharray:none;stroke-opacity:1"
       d="M 88.74927,10.606459 88.976655,235.33029 M 88.74927,10.606459 l 13.99999,-0.01417 m -13.988607,11.26416 6.999997,-0.0071 m -6.988614,11.257077 6.999997,-0.0071 m -6.988613,11.257077 6.999996,-0.0071 m -6.988613,11.257077 6.999996,-0.0071 m -6.988613,11.257077 6.999996,-0.0071 m -6.988613,11.257077 6.999997,-0.0071 m -6.988613,11.257077 6.999996,-0.0071 m -6.988613,11.257074 6.999996,-0.007 m -6.988613,11.25708 6.999996,-0.007 m -6.988613,11.25708 13.999988,-0.0142 m -13.988605,11.26416 6.999997,-0.007 m -6.988613,11.25708 6.999996,-0.007 m -6.988613,11.25707 6.999996,-0.007 m -6.988613,11.25708 6.999996,-0.007 m -6.988613,11.25707 6.999997,-0.007 m -6.988614,11.25708 6.999997,-0.007 m -6.988613,11.25708 6.999996,-0.007 m -6.988613,11.25708 6.999996,-0.007 m -6.988613,11.25708 6.999997,-0.007 m -6.988893,10.98102 13.999995,-0.0142"
       id="path442-5"
       inkscape:path-effect="#path-effect444-7"
       inkscape:original-d="M 88.74927,10.606459 88.976655,235.33029" />
    <path
       style="fill:none;stroke:#000000;stroke-width:0.66;stroke-linecap:butt;stroke-linejoin:miter;stroke-dasharray:none;stroke-opacity:1"
       d="m 116.0858,10.281231 0.22739,224.723829 m -0.22739,-224.723829 13.99999,-0.01417 m -13.98861,11.26416 7,-0.0071 m -6.98861,11.257077 6.99999,-0.0071 m -6.98861,11.257078 7,-0.0071 m -6.98862,11.257077 7,-0.0071 m -6.98861,11.257077 6.99999,-0.0071 m -6.98861,11.257077 7,-0.0071 m -6.98862,11.257078 7,-0.0071 m -6.98861,11.257072 6.99999,-0.007 m -6.98861,11.25708 7,-0.007 m -6.98862,11.25707 14,-0.0142 m -13.98861,11.26416 6.99999,-0.007 m -6.98861,11.25708 7,-0.007 m -6.98861,11.25708 6.99999,-0.007 m -6.98861,11.25708 6.99999,-0.007 m -6.98861,11.25707 7,-0.007 m -6.98861,11.25708 6.99999,-0.007 m -6.98861,11.25707 7,-0.007 m -6.98862,11.25708 7,-0.007 m -6.98861,11.25708 6.99999,-0.007 m -6.98889,10.98102 13.99999,-0.0142"
       id="path442-62"
       inkscape:path-effect="#path-effect444-35"
       inkscape:original-d="m 116.0858,10.281231 0.22739,224.723829" />
    <path
       style="fill:none;stroke:#000000;stroke-width:0.66;stroke-linecap:butt;stroke-linejoin:miter;stroke-dasharray:none;stroke-opacity:1"
       d="m 148.66378,10.226387 0.22739,224.723823 m -0.22739,-224.723823 13.99999,-0.01417 m -13.98861,11.26416 7,-0.0071 m -6.98861,11.257077 6.99999,-0.0071 m -6.98861,11.257078 7,-0.0071 m -6.98862,11.257077 7,-0.0071 m -6.98861,11.257077 6.99999,-0.0071 m -6.98861,11.257077 7,-0.0071 m -6.98862,11.257078 7,-0.0071 m -6.98861,11.257076 6.99999,-0.007 m -6.98861,11.25708 7,-0.007 m -6.98862,11.25708 14,-0.0142 m -13.98861,11.26416 6.99999,-0.007 m -6.98861,11.25708 7,-0.007 m -6.98861,11.25708 6.99999,-0.007 m -6.98861,11.25708 6.99999,-0.007 m -6.98861,11.25708 7,-0.007 m -6.98861,11.25707 6.99999,-0.007 m -6.98861,11.25708 7,-0.007 m -6.98862,11.25707 7,-0.007 m -6.98861,11.25708 6.99999,-0.007 m -6.98889,10.98102 13.99999,-0.0142"
       id="path442-1"
       inkscape:path-effect="#path-effect444-9"
       inkscape:original-d="m 148.66378,10.226387 0.22739,224.723823" />
    <path
       style="fill:none;stroke:#000000;stroke-width:0.66;stroke-linecap:butt;stroke-linejoin:miter;stroke-dasharray:none;stroke-opacity:1"
       d="m 174.72985,10.910605 0.22739,224.723825 m -0.22739,-224.723825 13.99999,-0.01417 m -13.98861,11.26416 7,-0.0071 m -6.98861,11.257077 6.99999,-0.0071 m -6.98861,11.257078 7,-0.0071 m -6.98862,11.257077 7,-0.0071 m -6.98861,11.257077 6.99999,-0.0071 m -6.98861,11.257077 7,-0.0071 m -6.98862,11.257078 7,-0.0071 m -6.98861,11.257078 6.99999,-0.007 m -6.98861,11.25707 7,-0.007 m -6.98862,11.25708 14,-0.0142 m -13.98861,11.26416 6.99999,-0.007 m -6.98861,11.25708 7,-0.007 m -6.98861,11.25708 6.99999,-0.007 m -6.98861,11.25707 6.99999,-0.007 m -6.98861,11.25708 7,-0.007 m -6.98861,11.25707 6.99999,-0.007 m -6.98861,11.25708 7,-0.007 m -6.98862,11.25708 7,-0.007 m -6.98861,11.25708 6.99999,-0.007 m -6.98889,10.98102 13.99999,-0.0142"
       id="path442-7"
       inkscape:path-effect="#path-effect444-2"
       inkscape:original-d="m 174.72985,10.910605 0.22739,224.723825" />
    <text
       xml:space="preserve"
       style="font-style:normal;font-weight:normal;font-size:10.5833px;line-height:1.25;font-family:sans-serif;letter-spacing:0px;word-spacing:0px;fill:#000000;fill-opacity:1;stroke:none;stroke-width:0.264583"
       x="33.547676"
       y="14.753155"
       id="text2069"><tspan
         sodipodi:role="line"
         id="tspan2067"
         style="stroke-width:0.264583"
         x="33.547676"
         y="14.753155">0</tspan></text>
    <text
       xml:space="preserve"
       style="font-style:normal;font-weight:normal;font-size:10.5833px;line-height:1.25;font-family:sans-serif;letter-spacing:0px;word-spacing:0px;fill:#000000;fill-opacity:1;stroke:none;stroke-width:0.264583"
       x="32.250408"
       y="126.61327"
       id="text2123"><tspan
         sodipodi:role="line"
         id="tspan2121"
         style="stroke-width:0.264583"
         x="32.250408"
         y="126.61327">100</tspan></text>
    <text
       xml:space="preserve"
       style="font-style:normal;font-weight:normal;font-size:10.5833px;line-height:1.25;font-family:sans-serif;letter-spacing:0px;word-spacing:0px;fill:#000000;fill-opacity:1;stroke:none;stroke-width:0.264583"
       x="26.401636"
       y="70.683212"
       id="text2127"><tspan
         sodipodi:role="line"
         id="tspan2125"
         style="stroke-width:0.264583"
         x="26.401636"
         y="70.683212">50</tspan></text>
    <text
       xml:space="preserve"
       style="font-style:normal;font-weight:normal;font-size:10.5833px;line-height:1.25;font-family:sans-serif;letter-spacing:0px;word-spacing:0px;fill:#000000;fill-opacity:1;stroke:none;stroke-width:0.264583"
       x="26.182791"
       y="182.54333"
       id="text2131"><tspan
         sodipodi:role="line"
         id="tspan2129"
         style="stroke-width:0.264583"
         x="26.182791"
         y="182.54333">150</tspan></text>
    <text
       xml:space="preserve"
       style="font-style:normal;font-weight:normal;font-size:10.5833px;line-height:1.25;font-family:sans-serif;letter-spacing:0px;word-spacing:0px;fill:#000000;fill-opacity:1;stroke:none;stroke-width:0.264583"
       x="33.617458"
       y="238.47339"
       id="text2135"><tspan
         sodipodi:role="line"
         id="tspan2133"
         style="stroke-width:0.264583"
         x="33.617458"
         y="238.47339">200</tspan></text>
  </g>
</svg>
