<?xml version="1.0" encoding="utf-8" ?>
<svg baseProfile="full" height="297mm" version="1.1" width="210mm" xmlns="http://www.w3.org/2000/svg" xmlns:ev="http://www.w3.org/2001/xml-events" xmlns:xlink="http://www.w3.org/1999/xlink"><defs /><g id="hlines" stroke="black" stroke-width="3"><line x1="7mm" x2="15mm" y1="10.0mm" y2="10.0mm" /><line x1="13mm" x2="15mm" y1="21.55mm" y2="21.55mm" /><line x1="13mm" x2="15mm" y1="33.1mm" y2="33.1mm" /><line x1="13mm" x2="15mm" y1="44.650000000000006mm" y2="44.650000000000006mm" /><line x1="13mm" x2="15mm" y1="56.2mm" y2="56.2mm" /><line x1="11mm" x2="15mm" y1="67.75mm" y2="67.75mm" /><line x1="13mm" x2="15mm" y1="67.75mm" y2="67.75mm" /><line x1="13mm" x2="15mm" y1="79.30000000000001mm" y2="79.30000000000001mm" /><line x1="13mm" x2="15mm" y1="90.85000000000001mm" y2="90.85000000000001mm" /><line x1="13mm" x2="15mm" y1="102.4mm" y2="102.4mm" /><line x1="13mm" x2="15mm" y1="113.95mm" y2="113.95mm" /><line x1="7mm" x2="15mm" y1="125.5mm" y2="125.5mm" /><line x1="13mm" x2="15mm" y1="125.5mm" y2="125.5mm" /><line x1="13mm" x2="15mm" y1="137.05mm" y2="137.05mm" /><line x1="13mm" x2="15mm" y1="148.60000000000002mm" y2="148.60000000000002mm" /><line x1="13mm" x2="15mm" y1="160.15mm" y2="160.15mm" /><line x1="13mm" x2="15mm" y1="171.70000000000002mm" y2="171.70000000000002mm" /><line x1="11mm" x2="15mm" y1="183.25mm" y2="183.25mm" /><line x1="13mm" x2="15mm" y1="183.25mm" y2="183.25mm" /><line x1="13mm" x2="15mm" y1="194.8mm" y2="194.8mm" /><line x1="13mm" x2="15mm" y1="206.35000000000002mm" y2="206.35000000000002mm" /><line x1="13mm" x2="15mm" y1="217.9mm" y2="217.9mm" /><line x1="13mm" x2="15mm" y1="229.45000000000002mm" y2="229.45000000000002mm" /><line x1="7mm" x2="15mm" y1="241.0mm" y2="241.0mm" /><line x1="34mm" x2="42mm" y1="10.0mm" y2="10.0mm" /><line x1="40mm" x2="42mm" y1="21.55mm" y2="21.55mm" /><line x1="40mm" x2="42mm" y1="33.1mm" y2="33.1mm" /><line x1="40mm" x2="42mm" y1="44.650000000000006mm" y2="44.650000000000006mm" /><line x1="40mm" x2="42mm" y1="56.2mm" y2="56.2mm" /><line x1="38mm" x2="42mm" y1="67.75mm" y2="67.75mm" /><line x1="40mm" x2="42mm" y1="67.75mm" y2="67.75mm" /><line x1="40mm" x2="42mm" y1="79.30000000000001mm" y2="79.30000000000001mm" /><line x1="40mm" x2="42mm" y1="90.85000000000001mm" y2="90.85000000000001mm" /><line x1="40mm" x2="42mm" y1="102.4mm" y2="102.4mm" /><line x1="40mm" x2="42mm" y1="113.95mm" y2="113.95mm" /><line x1="34mm" x2="42mm" y1="125.5mm" y2="125.5mm" /><line x1="40mm" x2="42mm" y1="125.5mm" y2="125.5mm" /><line x1="40mm" x2="42mm" y1="137.05mm" y2="137.05mm" /><line x1="40mm" x2="42mm" y1="148.60000000000002mm" y2="148.60000000000002mm" /><line x1="40mm" x2="42mm" y1="160.15mm" y2="160.15mm" /><line x1="40mm" x2="42mm" y1="171.70000000000002mm" y2="171.70000000000002mm" /><line x1="38mm" x2="42mm" y1="183.25mm" y2="183.25mm" /><line x1="40mm" x2="42mm" y1="183.25mm" y2="183.25mm" /><line x1="40mm" x2="42mm" y1="194.8mm" y2="194.8mm" /><line x1="40mm" x2="42mm" y1="206.35000000000002mm" y2="206.35000000000002mm" /><line x1="40mm" x2="42mm" y1="217.9mm" y2="217.9mm" /><line x1="40mm" x2="42mm" y1="229.45000000000002mm" y2="229.45000000000002mm" /><line x1="34mm" x2="42mm" y1="241.0mm" y2="241.0mm" /><line x1="61mm" x2="69mm" y1="10.0mm" y2="10.0mm" /><line x1="67mm" x2="69mm" y1="21.55mm" y2="21.55mm" /><line x1="67mm" x2="69mm" y1="33.1mm" y2="33.1mm" /><line x1="67mm" x2="69mm" y1="44.650000000000006mm" y2="44.650000000000006mm" /><line x1="67mm" x2="69mm" y1="56.2mm" y2="56.2mm" /><line x1="65mm" x2="69mm" y1="67.75mm" y2="67.75mm" /><line x1="67mm" x2="69mm" y1="67.75mm" y2="67.75mm" /><line x1="67mm" x2="69mm" y1="79.30000000000001mm" y2="79.30000000000001mm" /><line x1="67mm" x2="69mm" y1="90.85000000000001mm" y2="90.85000000000001mm" /><line x1="67mm" x2="69mm" y1="102.4mm" y2="102.4mm" /><line x1="67mm" x2="69mm" y1="113.95mm" y2="113.95mm" /><line x1="61mm" x2="69mm" y1="125.5mm" y2="125.5mm" /><line x1="67mm" x2="69mm" y1="125.5mm" y2="125.5mm" /><line x1="67mm" x2="69mm" y1="137.05mm" y2="137.05mm" /><line x1="67mm" x2="69mm" y1="148.60000000000002mm" y2="148.60000000000002mm" /><line x1="67mm" x2="69mm" y1="160.15mm" y2="160.15mm" /><line x1="67mm" x2="69mm" y1="171.70000000000002mm" y2="171.70000000000002mm" /><line x1="65mm" x2="69mm" y1="183.25mm" y2="183.25mm" /><line x1="67mm" x2="69mm" y1="183.25mm" y2="183.25mm" /><line x1="67mm" x2="69mm" y1="194.8mm" y2="194.8mm" /><line x1="67mm" x2="69mm" y1="206.35000000000002mm" y2="206.35000000000002mm" /><line x1="67mm" x2="69mm" y1="217.9mm" y2="217.9mm" /><line x1="67mm" x2="69mm" y1="229.45000000000002mm" y2="229.45000000000002mm" /><line x1="61mm" x2="69mm" y1="241.0mm" y2="241.0mm" /><line x1="88mm" x2="96mm" y1="10.0mm" y2="10.0mm" /><line x1="94mm" x2="96mm" y1="21.55mm" y2="21.55mm" /><line x1="94mm" x2="96mm" y1="33.1mm" y2="33.1mm" /><line x1="94mm" x2="96mm" y1="44.650000000000006mm" y2="44.650000000000006mm" /><line x1="94mm" x2="96mm" y1="56.2mm" y2="56.2mm" /><line x1="92mm" x2="96mm" y1="67.75mm" y2="67.75mm" /><line x1="94mm" x2="96mm" y1="67.75mm" y2="67.75mm" /><line x1="94mm" x2="96mm" y1="79.30000000000001mm" y2="79.30000000000001mm" /><line x1="94mm" x2="96mm" y1="90.85000000000001mm" y2="90.85000000000001mm" /><line x1="94mm" x2="96mm" y1="102.4mm" y2="102.4mm" /><line x1="94mm" x2="96mm" y1="113.95mm" y2="113.95mm" /><line x1="88mm" x2="96mm" y1="125.5mm" y2="125.5mm" /><line x1="94mm" x2="96mm" y1="125.5mm" y2="125.5mm" /><line x1="94mm" x2="96mm" y1="137.05mm" y2="137.05mm" /><line x1="94mm" x2="96mm" y1="148.60000000000002mm" y2="148.60000000000002mm" /><line x1="94mm" x2="96mm" y1="160.15mm" y2="160.15mm" /><line x1="94mm" x2="96mm" y1="171.70000000000002mm" y2="171.70000000000002mm" /><line x1="92mm" x2="96mm" y1="183.25mm" y2="183.25mm" /><line x1="94mm" x2="96mm" y1="183.25mm" y2="183.25mm" /><line x1="94mm" x2="96mm" y1="194.8mm" y2="194.8mm" /><line x1="94mm" x2="96mm" y1="206.35000000000002mm" y2="206.35000000000002mm" /><line x1="94mm" x2="96mm" y1="217.9mm" y2="217.9mm" /><line x1="94mm" x2="96mm" y1="229.45000000000002mm" y2="229.45000000000002mm" /><line x1="88mm" x2="96mm" y1="241.0mm" y2="241.0mm" /><line x1="115mm" x2="123mm" y1="10.0mm" y2="10.0mm" /><line x1="121mm" x2="123mm" y1="21.55mm" y2="21.55mm" /><line x1="121mm" x2="123mm" y1="33.1mm" y2="33.1mm" /><line x1="121mm" x2="123mm" y1="44.650000000000006mm" y2="44.650000000000006mm" /><line x1="121mm" x2="123mm" y1="56.2mm" y2="56.2mm" /><line x1="119mm" x2="123mm" y1="67.75mm" y2="67.75mm" /><line x1="121mm" x2="123mm" y1="67.75mm" y2="67.75mm" /><line x1="121mm" x2="123mm" y1="79.30000000000001mm" y2="79.30000000000001mm" /><line x1="121mm" x2="123mm" y1="90.85000000000001mm" y2="90.85000000000001mm" /><line x1="121mm" x2="123mm" y1="102.4mm" y2="102.4mm" /><line x1="121mm" x2="123mm" y1="113.95mm" y2="113.95mm" /><line x1="115mm" x2="123mm" y1="125.5mm" y2="125.5mm" /><line x1="121mm" x2="123mm" y1="125.5mm" y2="125.5mm" /><line x1="121mm" x2="123mm" y1="137.05mm" y2="137.05mm" /><line x1="121mm" x2="123mm" y1="148.60000000000002mm" y2="148.60000000000002mm" /><line x1="121mm" x2="123mm" y1="160.15mm" y2="160.15mm" /><line x1="121mm" x2="123mm" y1="171.70000000000002mm" y2="171.70000000000002mm" /><line x1="119mm" x2="123mm" y1="183.25mm" y2="183.25mm" /><line x1="121mm" x2="123mm" y1="183.25mm" y2="183.25mm" /><line x1="121mm" x2="123mm" y1="194.8mm" y2="194.8mm" /><line x1="121mm" x2="123mm" y1="206.35000000000002mm" y2="206.35000000000002mm" /><line x1="121mm" x2="123mm" y1="217.9mm" y2="217.9mm" /><line x1="121mm" x2="123mm" y1="229.45000000000002mm" y2="229.45000000000002mm" /><line x1="115mm" x2="123mm" y1="241.0mm" y2="241.0mm" /><line x1="142mm" x2="150mm" y1="10.0mm" y2="10.0mm" /><line x1="148mm" x2="150mm" y1="21.55mm" y2="21.55mm" /><line x1="148mm" x2="150mm" y1="33.1mm" y2="33.1mm" /><line x1="148mm" x2="150mm" y1="44.650000000000006mm" y2="44.650000000000006mm" /><line x1="148mm" x2="150mm" y1="56.2mm" y2="56.2mm" /><line x1="146mm" x2="150mm" y1="67.75mm" y2="67.75mm" /><line x1="148mm" x2="150mm" y1="67.75mm" y2="67.75mm" /><line x1="148mm" x2="150mm" y1="79.30000000000001mm" y2="79.30000000000001mm" /><line x1="148mm" x2="150mm" y1="90.85000000000001mm" y2="90.85000000000001mm" /><line x1="148mm" x2="150mm" y1="102.4mm" y2="102.4mm" /><line x1="148mm" x2="150mm" y1="113.95mm" y2="113.95mm" /><line x1="142mm" x2="150mm" y1="125.5mm" y2="125.5mm" /><line x1="148mm" x2="150mm" y1="125.5mm" y2="125.5mm" /><line x1="148mm" x2="150mm" y1="137.05mm" y2="137.05mm" /><line x1="148mm" x2="150mm" y1="148.60000000000002mm" y2="148.60000000000002mm" /><line x1="148mm" x2="150mm" y1="160.15mm" y2="160.15mm" /><line x1="148mm" x2="150mm" y1="171.70000000000002mm" y2="171.70000000000002mm" /><line x1="146mm" x2="150mm" y1="183.25mm" y2="183.25mm" /><line x1="148mm" x2="150mm" y1="183.25mm" y2="183.25mm" /><line x1="148mm" x2="150mm" y1="194.8mm" y2="194.8mm" /><line x1="148mm" x2="150mm" y1="206.35000000000002mm" y2="206.35000000000002mm" /><line x1="148mm" x2="150mm" y1="217.9mm" y2="217.9mm" /><line x1="148mm" x2="150mm" y1="229.45000000000002mm" y2="229.45000000000002mm" /><line x1="142mm" x2="150mm" y1="241.0mm" y2="241.0mm" /><line x1="169mm" x2="177mm" y1="10.0mm" y2="10.0mm" /><line x1="175mm" x2="177mm" y1="21.55mm" y2="21.55mm" /><line x1="175mm" x2="177mm" y1="33.1mm" y2="33.1mm" /><line x1="175mm" x2="177mm" y1="44.650000000000006mm" y2="44.650000000000006mm" /><line x1="175mm" x2="177mm" y1="56.2mm" y2="56.2mm" /><line x1="173mm" x2="177mm" y1="67.75mm" y2="67.75mm" /><line x1="175mm" x2="177mm" y1="67.75mm" y2="67.75mm" /><line x1="175mm" x2="177mm" y1="79.30000000000001mm" y2="79.30000000000001mm" /><line x1="175mm" x2="177mm" y1="90.85000000000001mm" y2="90.85000000000001mm" /><line x1="175mm" x2="177mm" y1="102.4mm" y2="102.4mm" /><line x1="175mm" x2="177mm" y1="113.95mm" y2="113.95mm" /><line x1="169mm" x2="177mm" y1="125.5mm" y2="125.5mm" /><line x1="175mm" x2="177mm" y1="125.5mm" y2="125.5mm" /><line x1="175mm" x2="177mm" y1="137.05mm" y2="137.05mm" /><line x1="175mm" x2="177mm" y1="148.60000000000002mm" y2="148.60000000000002mm" /><line x1="175mm" x2="177mm" y1="160.15mm" y2="160.15mm" /><line x1="175mm" x2="177mm" y1="171.70000000000002mm" y2="171.70000000000002mm" /><line x1="173mm" x2="177mm" y1="183.25mm" y2="183.25mm" /><line x1="175mm" x2="177mm" y1="183.25mm" y2="183.25mm" /><line x1="175mm" x2="177mm" y1="194.8mm" y2="194.8mm" /><line x1="175mm" x2="177mm" y1="206.35000000000002mm" y2="206.35000000000002mm" /><line x1="175mm" x2="177mm" y1="217.9mm" y2="217.9mm" /><line x1="175mm" x2="177mm" y1="229.45000000000002mm" y2="229.45000000000002mm" /><line x1="169mm" x2="177mm" y1="241.0mm" y2="241.0mm" /></g><g font-size="5mm" style="font-weight:bold"><text x="17mm" y="11.666666666666666mm">0</text><text x="17mm" y="23.21666666666667mm">10</text><text x="17mm" y="34.766666666666666mm">20</text><text x="17mm" y="46.31666666666667mm">30</text><text x="17mm" y="57.86666666666667mm">40</text><text x="17mm" y="69.41666666666667mm">50</text><text x="17mm" y="80.96666666666668mm">60</text><text x="17mm" y="92.51666666666668mm">70</text><text x="17mm" y="104.06666666666668mm">80</text><text x="17mm" y="115.61666666666667mm">90</text><text x="17mm" y="127.16666666666667mm">100</text><text x="17mm" y="138.71666666666667mm">110</text><text x="17mm" y="150.26666666666668mm">120</text><text x="17mm" y="161.81666666666666mm">130</text><text x="17mm" y="173.36666666666667mm">140</text><text x="17mm" y="184.91666666666666mm">150</text><text x="17mm" y="196.46666666666667mm">160</text><text x="17mm" y="208.01666666666668mm">170</text><text x="17mm" y="219.56666666666666mm">180</text><text x="17mm" y="231.11666666666667mm">190</text><text x="17mm" y="242.66666666666666mm">200</text><text x="44mm" y="23.21666666666667mm">210</text><text x="44mm" y="34.766666666666666mm">220</text><text x="44mm" y="46.31666666666667mm">230</text><text x="44mm" y="57.86666666666667mm">240</text><text x="44mm" y="69.41666666666667mm">250</text><text x="44mm" y="80.96666666666668mm">260</text><text x="44mm" y="92.51666666666668mm">270</text><text x="44mm" y="104.06666666666668mm">280</text><text x="44mm" y="115.61666666666667mm">290</text><text x="44mm" y="127.16666666666667mm">300</text><text x="44mm" y="138.71666666666667mm">310</text><text x="44mm" y="150.26666666666668mm">320</text><text x="44mm" y="161.81666666666666mm">330</text><text x="44mm" y="173.36666666666667mm">340</text><text x="44mm" y="184.91666666666666mm">350</text><text x="44mm" y="196.46666666666667mm">360</text><text x="44mm" y="208.01666666666668mm">370</text><text x="44mm" y="219.56666666666666mm">380</text><text x="44mm" y="231.11666666666667mm">390</text><text x="44mm" y="242.66666666666666mm">400</text><text x="71mm" y="23.21666666666667mm">410</text><text x="71mm" y="34.766666666666666mm">420</text><text x="71mm" y="46.31666666666667mm">430</text><text x="71mm" y="57.86666666666667mm">440</text><text x="71mm" y="69.41666666666667mm">450</text><text x="71mm" y="80.96666666666668mm">460</text><text x="71mm" y="92.51666666666668mm">470</text><text x="71mm" y="104.06666666666668mm">480</text><text x="71mm" y="115.61666666666667mm">490</text><text x="71mm" y="127.16666666666667mm">500</text><text x="71mm" y="138.71666666666667mm">510</text><text x="71mm" y="150.26666666666668mm">520</text><text x="71mm" y="161.81666666666666mm">530</text><text x="71mm" y="173.36666666666667mm">540</text><text x="71mm" y="184.91666666666666mm">550</text><text x="71mm" y="196.46666666666667mm">560</text><text x="71mm" y="208.01666666666668mm">570</text><text x="71mm" y="219.56666666666666mm">580</text><text x="71mm" y="231.11666666666667mm">590</text><text x="71mm" y="242.66666666666666mm">600</text><text x="98mm" y="23.21666666666667mm">610</text><text x="98mm" y="34.766666666666666mm">620</text><text x="98mm" y="46.31666666666667mm">630</text><text x="98mm" y="57.86666666666667mm">640</text><text x="98mm" y="69.41666666666667mm">650</text><text x="98mm" y="80.96666666666668mm">660</text><text x="98mm" y="92.51666666666668mm">670</text><text x="98mm" y="104.06666666666668mm">680</text><text x="98mm" y="115.61666666666667mm">690</text><text x="98mm" y="127.16666666666667mm">700</text><text x="98mm" y="138.71666666666667mm">710</text><text x="98mm" y="150.26666666666668mm">720</text><text x="98mm" y="161.81666666666666mm">730</text><text x="98mm" y="173.36666666666667mm">740</text><text x="98mm" y="184.91666666666666mm">750</text><text x="98mm" y="196.46666666666667mm">760</text><text x="98mm" y="208.01666666666668mm">770</text><text x="98mm" y="219.56666666666666mm">780</text><text x="98mm" y="231.11666666666667mm">790</text><text x="98mm" y="242.66666666666666mm">800</text><text x="125mm" y="23.21666666666667mm">810</text><text x="125mm" y="34.766666666666666mm">820</text><text x="125mm" y="46.31666666666667mm">830</text><text x="125mm" y="57.86666666666667mm">840</text><text x="125mm" y="69.41666666666667mm">850</text><text x="125mm" y="80.96666666666668mm">860</text><text x="125mm" y="92.51666666666668mm">870</text><text x="125mm" y="104.06666666666668mm">880</text><text x="125mm" y="115.61666666666667mm">890</text><text x="125mm" y="127.16666666666667mm">900</text><text x="125mm" y="138.71666666666667mm">910</text><text x="125mm" y="150.26666666666668mm">920</text><text x="125mm" y="161.81666666666666mm">930</text><text x="125mm" y="173.36666666666667mm">940</text><text x="125mm" y="184.91666666666666mm">950</text><text x="125mm" y="196.46666666666667mm">960</text><text x="125mm" y="208.01666666666668mm">970</text><text x="125mm" y="219.56666666666666mm">980</text><text x="125mm" y="231.11666666666667mm">990</text><text x="125mm" y="242.66666666666666mm">1000</text><text x="152mm" y="23.21666666666667mm">1010</text><text x="152mm" y="34.766666666666666mm">1020</text><text x="152mm" y="46.31666666666667mm">1030</text><text x="152mm" y="57.86666666666667mm">1040</text><text x="152mm" y="69.41666666666667mm">1050</text><text x="152mm" y="80.96666666666668mm">1060</text><text x="152mm" y="92.51666666666668mm">1070</text><text x="152mm" y="104.06666666666668mm">1080</text><text x="152mm" y="115.61666666666667mm">1090</text><text x="152mm" y="127.16666666666667mm">1100</text><text x="152mm" y="138.71666666666667mm">1110</text><text x="152mm" y="150.26666666666668mm">1120</text><text x="152mm" y="161.81666666666666mm">1130</text><text x="152mm" y="173.36666666666667mm">1140</text><text x="152mm" y="184.91666666666666mm">1150</text><text x="152mm" y="196.46666666666667mm">1160</text><text x="152mm" y="208.01666666666668mm">1170</text><text x="152mm" y="219.56666666666666mm">1180</text><text x="152mm" y="231.11666666666667mm">1190</text><text x="152mm" y="242.66666666666666mm">1200</text><text x="179mm" y="23.21666666666667mm">1210</text><text x="179mm" y="34.766666666666666mm">1220</text><text x="179mm" y="46.31666666666667mm">1230</text><text x="179mm" y="57.86666666666667mm">1240</text><text x="179mm" y="69.41666666666667mm">1250</text><text x="179mm" y="80.96666666666668mm">1260</text><text x="179mm" y="92.51666666666668mm">1270</text><text x="179mm" y="104.06666666666668mm">1280</text><text x="179mm" y="115.61666666666667mm">1290</text><text x="179mm" y="127.16666666666667mm">1300</text><text x="179mm" y="138.71666666666667mm">1310</text><text x="179mm" y="150.26666666666668mm">1320</text><text x="179mm" y="161.81666666666666mm">1330</text><text x="179mm" y="173.36666666666667mm">1340</text><text x="179mm" y="184.91666666666666mm">1350</text><text x="179mm" y="196.46666666666667mm">1360</text><text x="179mm" y="208.01666666666668mm">1370</text><text x="179mm" y="219.56666666666666mm">1380</text><text x="179mm" y="231.11666666666667mm">1390</text><text x="179mm" y="242.66666666666666mm">1400</text></g></svg>