<?xml version="1.0" standalone="no"?>
<!DOCTYPE svg PUBLIC "-//W3C//DTD SVG 1.1//EN" 
"http://www.w3.org/Graphics/SVG/1.1/DTD/svg11.dtd"> 
<svg
  xmlns="http://www.w3.org/2000/svg"
  version="1.1"
  width="27cm" height="19cm" viewBox="0 0 117000 82670 "
>
  <title>SVG Picture created as Potencia-Drawings.svg </title>
  <desc>Picture generated by wxSVG v0101 </desc>
  <g style="fill:black; stroke:black; stroke-width:1">
</g>
<g style="fill:#000000; fill-opacity:0.0; 
  stroke:#000000; stroke-linecap:round; stroke-linejoin:round; stroke-opacity:1.0; stroke-opacity:1.0; stroke-width:0" 
   transform="translate(0 0) scale(1 1)">
<path d="M7814 42000 L7818 42000" /> 
<path d="M7816 41998 L7816 42002" /> 
</g>
<g style="fill:#000000; fill-opacity:0.0; 
  stroke:#000000; stroke-linecap:round; stroke-linejoin:round; stroke-opacity:1.0; stroke-opacity:1.0; stroke-width:120" 
   transform="translate(0 0) scale(1 1)">
<path d="M7488 39574 L7487 39231" /> 
<g style = "stroke-linecap:round;" > 
<path d="M7487 39231 L7487 39231" /> 
</g></g>
<g style="fill:#000000; fill-opacity:0.0; 
  stroke:#000000; stroke-linecap:round; stroke-linejoin:round; stroke-opacity:1.0; stroke-opacity:1.0; stroke-width:120" 
   transform="translate(0 0) scale(1 1)">
<path d="M7487 39403 L8287 39401" /> 
<path d="M8287 39401 L8173 39344" /> 
<path d="M8173 39344 L8097 39287" /> 
<path d="M8097 39287 L8059 39230" /> 
<g style = "stroke-linecap:round;" > 
<path d="M8059 39230 L8059 39230" /> 
</g></g>
<g style="fill:#000000; fill-opacity:0.0; 
  stroke:#000000; stroke-linecap:round; stroke-linejoin:round; stroke-opacity:1.0; stroke-opacity:1.0; stroke-width:120" 
   transform="translate(0 0) scale(1 1)">
<path d="M8289 40115 L8288 39829" /> 
<path d="M8288 39829 L7907 39801" /> 
<path d="M7907 39801 L7945 39830" /> 
<path d="M7945 39830 L7983 39887" /> 
<path d="M7983 39887 L7984 40030" /> 
<path d="M7984 40030 L7946 40087" /> 
<path d="M7946 40087 L7908 40116" /> 
<path d="M7908 40116 L7832 40144" /> 
<path d="M7832 40144 L7642 40144" /> 
<path d="M7642 40144 L7565 40116" /> 
<path d="M7565 40116 L7527 40088" /> 
<path d="M7527 40088 L7489 40031" /> 
<path d="M7489 40031 L7488 39888" /> 
<path d="M7488 39888 L7526 39831" /> 
<path d="M7526 39831 L7564 39801" /> 
<g style = "stroke-linecap:round;" > 
<path d="M7564 39801 L7564 39801" /> 
</g></g>
<g style="fill:#000000; fill-opacity:0.0; 
  stroke:#000000; stroke-linecap:round; stroke-linejoin:round; stroke-opacity:1.0; stroke-opacity:1.0; stroke-width:120" 
   transform="translate(0 0) scale(1 1)">
<path d="M8024 40658 L7490 40659" /> 
<g style = "stroke-linecap:round;" > 
<path d="M7490 40659 L7490 40659" /> 
</g></g>
<g style="fill:#000000; fill-opacity:0.0; 
  stroke:#000000; stroke-linecap:round; stroke-linejoin:round; stroke-opacity:1.0; stroke-opacity:1.0; stroke-width:120" 
   transform="translate(0 0) scale(1 1)">
<path d="M8327 40514 L7756 40372" /> 
<path d="M7756 40372 L7757 40744" /> 
<g style = "stroke-linecap:round;" > 
<path d="M7757 40744 L7757 40744" /> 
</g></g>
<g style="fill:#000000; fill-opacity:0.0; 
  stroke:#000000; stroke-linecap:round; stroke-linejoin:round; stroke-opacity:1.0; stroke-opacity:1.0; stroke-width:120" 
   transform="translate(0 0) scale(1 1)">
<path d="M7528 41001 L7490 41001" /> 
<path d="M7490 41001 L7414 40973" /> 
<path d="M7414 40973 L7376 40944" /> 
<g style = "stroke-linecap:round;" > 
<path d="M7376 40944 L7376 40944" /> 
</g></g>
<g style="fill:#000000; fill-opacity:0.0; 
  stroke:#000000; stroke-linecap:round; stroke-linejoin:round; stroke-opacity:1.0; stroke-opacity:1.0; stroke-width:120" 
   transform="translate(0 0) scale(1 1)">
<path d="M7491 41287 L7491 41402" /> 
<path d="M7491 41402 L7529 41458" /> 
<path d="M7529 41458 L7567 41486" /> 
<path d="M7567 41486 L7682 41544" /> 
<path d="M7682 41544 L7834 41572" /> 
<path d="M7834 41572 L8139 41571" /> 
<path d="M8139 41571 L8215 41543" /> 
<path d="M8215 41543 L8253 41514" /> 
<path d="M8253 41514 L8291 41457" /> 
<path d="M8291 41457 L8291 41343" /> 
<path d="M8291 41343 L8253 41285" /> 
<path d="M8253 41285 L8215 41257" /> 
<path d="M8215 41257 L8139 41228" /> 
<path d="M8139 41228 L7948 41229" /> 
<path d="M7948 41229 L7872 41258" /> 
<path d="M7872 41258 L7834 41286" /> 
<path d="M7834 41286 L7796 41344" /> 
<path d="M7796 41344 L7796 41458" /> 
<path d="M7796 41458 L7834 41515" /> 
<path d="M7834 41515 L7872 41544" /> 
<path d="M7872 41544 L7948 41572" /> 
<g style = "stroke-linecap:round;" > 
<path d="M7948 41572 L7948 41572" /> 
</g></g>
<g style="fill:#000000; fill-opacity:0.0; 
  stroke:#000000; stroke-linecap:round; stroke-linejoin:round; stroke-opacity:1.0; stroke-opacity:1.0; stroke-width:120" 
   transform="translate(0 0) scale(1 1)">
<path d="M8026 42086 L7492 42087" /> 
<g style = "stroke-linecap:round;" > 
<path d="M7492 42087 L7492 42087" /> 
</g></g>
<g style="fill:#000000; fill-opacity:0.0; 
  stroke:#000000; stroke-linecap:round; stroke-linejoin:round; stroke-opacity:1.0; stroke-opacity:1.0; stroke-width:120" 
   transform="translate(0 0) scale(1 1)">
<path d="M8330 41942 L7759 41800" /> 
<path d="M7759 41800 L7759 42172" /> 
<g style = "stroke-linecap:round;" > 
<path d="M7759 42172 L7759 42172" /> 
</g></g>
<g style="fill:#000000; fill-opacity:0.0; 
  stroke:#000000; stroke-linecap:round; stroke-linejoin:round; stroke-opacity:1.0; stroke-opacity:1.0; stroke-width:120" 
   transform="translate(0 0) scale(1 1)">
<path d="M8293 42513 L8293 42570" /> 
<path d="M8293 42570 L8255 42627" /> 
<path d="M8255 42627 L8217 42656" /> 
<path d="M8217 42656 L8141 42685" /> 
<path d="M8141 42685 L7988 42714" /> 
<path d="M7988 42714 L7798 42714" /> 
<path d="M7798 42714 L7646 42686" /> 
<path d="M7646 42686 L7569 42657" /> 
<path d="M7569 42657 L7531 42628" /> 
<path d="M7531 42628 L7493 42572" /> 
<path d="M7493 42572 L7493 42515" /> 
<path d="M7493 42515 L7531 42457" /> 
<path d="M7531 42457 L7569 42428" /> 
<path d="M7569 42428 L7646 42400" /> 
<path d="M7646 42400 L7798 42371" /> 
<path d="M7798 42371 L7988 42371" /> 
<path d="M7988 42371 L8141 42399" /> 
<path d="M8141 42399 L8217 42427" /> 
<path d="M8217 42427 L8255 42456" /> 
<path d="M8255 42456 L8293 42513" /> 
</g>
<g style="fill:#000000; fill-opacity:0.0; 
  stroke:#000000; stroke-linecap:round; stroke-linejoin:round; stroke-opacity:1.0; stroke-opacity:1.0; stroke-width:120" 
   transform="translate(0 0) scale(1 1)">
<path d="M7494 43429 L8028 43428" /> 
<g style = "stroke-linecap:round;" > 
<path d="M8028 43428 L8028 43428" /> 
</g></g>
<g style="fill:#000000; fill-opacity:0.0; 
  stroke:#000000; stroke-linecap:round; stroke-linejoin:round; stroke-opacity:1.0; stroke-opacity:1.0; stroke-width:120" 
   transform="translate(0 0) scale(1 1)">
<path d="M7951 43428 L7990 43456" /> 
<path d="M7990 43456 L8029 43514" /> 
<path d="M8029 43514 L8029 43599" /> 
<path d="M8029 43599 L7990 43656" /> 
<path d="M7990 43656 L7914 43685" /> 
<path d="M7914 43685 L7495 43686" /> 
<g style = "stroke-linecap:round;" > 
<path d="M7495 43686 L7495 43686" /> 
</g></g>
<g style="fill:#000000; fill-opacity:0.0; 
  stroke:#000000; stroke-linecap:round; stroke-linejoin:round; stroke-opacity:1.0; stroke-opacity:1.0; stroke-width:120" 
   transform="translate(0 0) scale(1 1)">
<path d="M7914 43685 L7990 43714" /> 
<path d="M7990 43714 L8029 43771" /> 
<path d="M8029 43771 L8029 43856" /> 
<path d="M8029 43856 L7990 43914" /> 
<path d="M7990 43914 L7914 43942" /> 
<path d="M7914 43942 L7495 43943" /> 
<g style = "stroke-linecap:round;" > 
<path d="M7495 43943 L7495 43943" /> 
</g></g>
<g style="fill:#000000; fill-opacity:0.0; 
  stroke:#000000; stroke-linecap:round; stroke-linejoin:round; stroke-opacity:1.0; stroke-opacity:1.0; stroke-width:120" 
   transform="translate(0 0) scale(1 1)">
<path d="M7496 44229 L8030 44228" /> 
<g style = "stroke-linecap:round;" > 
<path d="M8030 44228 L8030 44228" /> 
</g></g>
<g style="fill:#000000; fill-opacity:0.0; 
  stroke:#000000; stroke-linecap:round; stroke-linejoin:round; stroke-opacity:1.0; stroke-opacity:1.0; stroke-width:120" 
   transform="translate(0 0) scale(1 1)">
<path d="M7953 44228 L7991 44256" /> 
<path d="M7991 44256 L8030 44314" /> 
<path d="M8030 44314 L8030 44399" /> 
<path d="M8030 44399 L7991 44456" /> 
<path d="M7991 44456 L7915 44485" /> 
<path d="M7915 44485 L7496 44486" /> 
<g style = "stroke-linecap:round;" > 
<path d="M7496 44486 L7496 44486" /> 
</g></g>
<g style="fill:#000000; fill-opacity:0.0; 
  stroke:#000000; stroke-linecap:round; stroke-linejoin:round; stroke-opacity:1.0; stroke-opacity:1.0; stroke-width:120" 
   transform="translate(0 0) scale(1 1)">
<path d="M7915 44485 L7991 44514" /> 
<path d="M7991 44514 L8030 44571" /> 
<path d="M8030 44571 L8031 44656" /> 
<path d="M8031 44656 L7992 44714" /> 
<path d="M7992 44714 L7916 44742" /> 
<path d="M7916 44742 L7497 44743" /> 
<g style = "stroke-linecap:round;" > 
<path d="M7497 44743 L7497 44743" /> 
</g></g>
<g style="fill:#000000; fill-opacity:0.0; 
  stroke:#000000; stroke-linecap:round; stroke-linejoin:round; stroke-opacity:1.0; stroke-opacity:1.0; stroke-width:150" 
   transform="translate(0 0) scale(1 1)">
<path d="M8501 11500 L8501 72500" /> 
<path d="M7131 11500 L10500 11500" /> 
<path d="M7131 72500 L10500 72500" /> 
<path d="M8271 72057 L8501 72500" /> 
<path d="M8501 72500 L8731 72057" /> 
<path d="M8271 11943 L8501 11500" /> 
<path d="M8501 11500 L8731 11943" /> 
</g>
<g style="fill:#000000; fill-opacity:0.0; 
  stroke:#000000; stroke-linecap:round; stroke-linejoin:round; stroke-opacity:1.0; stroke-opacity:1.0; stroke-width:0" 
   transform="translate(0 0) scale(1 1)">
<path d="M58123 9184 L58127 9184" /> 
<path d="M58125 9182 L58125 9186" /> 
</g>
<g style="fill:#000000; fill-opacity:0.0; 
  stroke:#000000; stroke-linecap:round; stroke-linejoin:round; stroke-opacity:1.0; stroke-opacity:1.0; stroke-width:120" 
   transform="translate(0 0) scale(1 1)">
<path d="M55355 8784 L55384 8746" /> 
<path d="M55384 8746 L55441 8708" /> 
<path d="M55441 8708 L55584 8708" /> 
<path d="M55584 8708 L55641 8746" /> 
<path d="M55641 8746 L55670 8784" /> 
<path d="M55670 8784 L55698 8860" /> 
<path d="M55698 8860 L55698 8936" /> 
<path d="M55698 8936 L55670 9051" /> 
<path d="M55670 9051 L55327 9508" /> 
<path d="M55327 9508 L55698 9508" /> 
<g style = "stroke-linecap:round;" > 
<path d="M55698 9508 L55698 9508" /> 
</g></g>
<g style="fill:#000000; fill-opacity:0.0; 
  stroke:#000000; stroke-linecap:round; stroke-linejoin:round; stroke-opacity:1.0; stroke-opacity:1.0; stroke-width:120" 
   transform="translate(0 0) scale(1 1)">
<path d="M55926 8784 L55955 8746" /> 
<path d="M55955 8746 L56012 8708" /> 
<path d="M56012 8708 L56155 8708" /> 
<path d="M56155 8708 L56212 8746" /> 
<path d="M56212 8746 L56241 8784" /> 
<path d="M56241 8784 L56269 8860" /> 
<path d="M56269 8860 L56269 8936" /> 
<path d="M56269 8936 L56241 9051" /> 
<path d="M56241 9051 L55898 9508" /> 
<path d="M55898 9508 L56269 9508" /> 
<g style = "stroke-linecap:round;" > 
<path d="M56269 9508 L56269 9508" /> 
</g></g>
<g style="fill:#000000; fill-opacity:0.0; 
  stroke:#000000; stroke-linecap:round; stroke-linejoin:round; stroke-opacity:1.0; stroke-opacity:1.0; stroke-width:120" 
   transform="translate(0 0) scale(1 1)">
<path d="M56554 9508 L56669 9508" /> 
<path d="M56669 9508 L56726 9470" /> 
<path d="M56726 9470 L56754 9432" /> 
<path d="M56754 9432 L56812 9317" /> 
<path d="M56812 9317 L56840 9165" /> 
<path d="M56840 9165 L56840 8860" /> 
<path d="M56840 8860 L56812 8784" /> 
<path d="M56812 8784 L56783 8746" /> 
<path d="M56783 8746 L56726 8708" /> 
<path d="M56726 8708 L56612 8708" /> 
<path d="M56612 8708 L56554 8746" /> 
<path d="M56554 8746 L56526 8784" /> 
<path d="M56526 8784 L56497 8860" /> 
<path d="M56497 8860 L56497 9051" /> 
<path d="M56497 9051 L56526 9127" /> 
<path d="M56526 9127 L56554 9165" /> 
<path d="M56554 9165 L56612 9203" /> 
<path d="M56612 9203 L56726 9203" /> 
<path d="M56726 9203 L56783 9165" /> 
<path d="M56783 9165 L56812 9127" /> 
<path d="M56812 9127 L56840 9051" /> 
<g style = "stroke-linecap:round;" > 
<path d="M56840 9051 L56840 9051" /> 
</g></g>
<g style="fill:#000000; fill-opacity:0.0; 
  stroke:#000000; stroke-linecap:round; stroke-linejoin:round; stroke-opacity:1.0; stroke-opacity:1.0; stroke-width:120" 
   transform="translate(0 0) scale(1 1)">
<path d="M57125 9470 L57125 9508" /> 
<path d="M57125 9508 L57097 9584" /> 
<path d="M57097 9584 L57068 9622" /> 
<g style = "stroke-linecap:round;" > 
<path d="M57068 9622 L57068 9622" /> 
</g></g>
<g style="fill:#000000; fill-opacity:0.0; 
  stroke:#000000; stroke-linecap:round; stroke-linejoin:round; stroke-opacity:1.0; stroke-opacity:1.0; stroke-width:120" 
   transform="translate(0 0) scale(1 1)">
<path d="M57354 8784 L57383 8746" /> 
<path d="M57383 8746 L57440 8708" /> 
<path d="M57440 8708 L57583 8708" /> 
<path d="M57583 8708 L57640 8746" /> 
<path d="M57640 8746 L57669 8784" /> 
<path d="M57669 8784 L57697 8860" /> 
<path d="M57697 8860 L57697 8936" /> 
<path d="M57697 8936 L57669 9051" /> 
<path d="M57669 9051 L57326 9508" /> 
<path d="M57326 9508 L57697 9508" /> 
<g style = "stroke-linecap:round;" > 
<path d="M57697 9508 L57697 9508" /> 
</g></g>
<g style="fill:#000000; fill-opacity:0.0; 
  stroke:#000000; stroke-linecap:round; stroke-linejoin:round; stroke-opacity:1.0; stroke-opacity:1.0; stroke-width:120" 
   transform="translate(0 0) scale(1 1)">
<path d="M57897 8708 L58268 8708" /> 
<path d="M58268 8708 L58068 9013" /> 
<path d="M58068 9013 L58154 9013" /> 
<path d="M58154 9013 L58211 9051" /> 
<path d="M58211 9051 L58240 9089" /> 
<path d="M58240 9089 L58268 9165" /> 
<path d="M58268 9165 L58268 9355" /> 
<path d="M58268 9355 L58240 9432" /> 
<path d="M58240 9432 L58211 9470" /> 
<path d="M58211 9470 L58154 9508" /> 
<path d="M58154 9508 L57982 9508" /> 
<path d="M57982 9508 L57925 9470" /> 
<path d="M57925 9470 L57897 9432" /> 
<g style = "stroke-linecap:round;" > 
<path d="M57897 9432 L57897 9432" /> 
</g></g>
<g style="fill:#000000; fill-opacity:0.0; 
  stroke:#000000; stroke-linecap:round; stroke-linejoin:round; stroke-opacity:1.0; stroke-opacity:1.0; stroke-width:120" 
   transform="translate(0 0) scale(1 1)">
<path d="M58811 8708 L58525 8708" /> 
<path d="M58525 8708 L58496 9089" /> 
<path d="M58496 9089 L58525 9051" /> 
<path d="M58525 9051 L58582 9013" /> 
<path d="M58582 9013 L58725 9013" /> 
<path d="M58725 9013 L58782 9051" /> 
<path d="M58782 9051 L58811 9089" /> 
<path d="M58811 9089 L58839 9165" /> 
<path d="M58839 9165 L58839 9355" /> 
<path d="M58839 9355 L58811 9432" /> 
<path d="M58811 9432 L58782 9470" /> 
<path d="M58782 9470 L58725 9508" /> 
<path d="M58725 9508 L58582 9508" /> 
<path d="M58582 9508 L58525 9470" /> 
<path d="M58525 9470 L58496 9432" /> 
<g style = "stroke-linecap:round;" > 
<path d="M58496 9432 L58496 9432" /> 
</g></g>
<g style="fill:#000000; fill-opacity:0.0; 
  stroke:#000000; stroke-linecap:round; stroke-linejoin:round; stroke-opacity:1.0; stroke-opacity:1.0; stroke-width:120" 
   transform="translate(0 0) scale(1 1)">
<path d="M59553 9508 L59553 8974" /> 
<g style = "stroke-linecap:round;" > 
<path d="M59553 8974 L59553 8974" /> 
</g></g>
<g style="fill:#000000; fill-opacity:0.0; 
  stroke:#000000; stroke-linecap:round; stroke-linejoin:round; stroke-opacity:1.0; stroke-opacity:1.0; stroke-width:120" 
   transform="translate(0 0) scale(1 1)">
<path d="M59553 9051 L59581 9013" /> 
<path d="M59581 9013 L59639 8974" /> 
<path d="M59639 8974 L59724 8974" /> 
<path d="M59724 8974 L59781 9013" /> 
<path d="M59781 9013 L59810 9089" /> 
<path d="M59810 9089 L59810 9508" /> 
<g style = "stroke-linecap:round;" > 
<path d="M59810 9508 L59810 9508" /> 
</g></g>
<g style="fill:#000000; fill-opacity:0.0; 
  stroke:#000000; stroke-linecap:round; stroke-linejoin:round; stroke-opacity:1.0; stroke-opacity:1.0; stroke-width:120" 
   transform="translate(0 0) scale(1 1)">
<path d="M59810 9089 L59839 9013" /> 
<path d="M59839 9013 L59896 8974" /> 
<path d="M59896 8974 L59981 8974" /> 
<path d="M59981 8974 L60039 9013" /> 
<path d="M60039 9013 L60067 9089" /> 
<path d="M60067 9089 L60067 9508" /> 
<g style = "stroke-linecap:round;" > 
<path d="M60067 9508 L60067 9508" /> 
</g></g>
<g style="fill:#000000; fill-opacity:0.0; 
  stroke:#000000; stroke-linecap:round; stroke-linejoin:round; stroke-opacity:1.0; stroke-opacity:1.0; stroke-width:120" 
   transform="translate(0 0) scale(1 1)">
<path d="M60353 9508 L60353 8974" /> 
<g style = "stroke-linecap:round;" > 
<path d="M60353 8974 L60353 8974" /> 
</g></g>
<g style="fill:#000000; fill-opacity:0.0; 
  stroke:#000000; stroke-linecap:round; stroke-linejoin:round; stroke-opacity:1.0; stroke-opacity:1.0; stroke-width:120" 
   transform="translate(0 0) scale(1 1)">
<path d="M60353 9051 L60381 9013" /> 
<path d="M60381 9013 L60439 8974" /> 
<path d="M60439 8974 L60524 8974" /> 
<path d="M60524 8974 L60581 9013" /> 
<path d="M60581 9013 L60610 9089" /> 
<path d="M60610 9089 L60610 9508" /> 
<g style = "stroke-linecap:round;" > 
<path d="M60610 9508 L60610 9508" /> 
</g></g>
<g style="fill:#000000; fill-opacity:0.0; 
  stroke:#000000; stroke-linecap:round; stroke-linejoin:round; stroke-opacity:1.0; stroke-opacity:1.0; stroke-width:120" 
   transform="translate(0 0) scale(1 1)">
<path d="M60610 9089 L60639 9013" /> 
<path d="M60639 9013 L60696 8974" /> 
<path d="M60696 8974 L60781 8974" /> 
<path d="M60781 8974 L60839 9013" /> 
<path d="M60839 9013 L60867 9089" /> 
<path d="M60867 9089 L60867 9508" /> 
<g style = "stroke-linecap:round;" > 
<path d="M60867 9508 L60867 9508" /> 
</g></g>
<g style="fill:#000000; fill-opacity:0.0; 
  stroke:#000000; stroke-linecap:round; stroke-linejoin:round; stroke-opacity:1.0; stroke-opacity:1.0; stroke-width:150" 
   transform="translate(0 0) scale(1 1)">
<path d="M13000 8499 L103250 8499" /> 
<path d="M13000 7000 L13000 9869" /> 
<path d="M103250 7000 L103250 9869" /> 
<path d="M102807 8729 L103250 8499" /> 
<path d="M102807 8269 L103250 8499" /> 
<path d="M13000 8499 L13443 8729" /> 
<path d="M13000 8499 L13443 8269" /> 
<path d="M13000 42500 L13000 11500" /> 
<path d="M13000 42500 L52000 42500" /> 
<path d="M52000 11500 L52000 42500" /> 
<path d="M13000 11500 L52000 11500" /> 
</g>
<g style="fill:#000000; fill-opacity:0.0; 
  stroke:#000000; stroke-linecap:round; stroke-linejoin:round; stroke-opacity:1.0; stroke-opacity:1.0; stroke-width:0" 
   transform="translate(0 0) scale(1 1)">
<path d="M54932 27000 L54936 27000" /> 
<path d="M54934 26998 L54934 27002" /> 
</g>
<g style="fill:#000000; fill-opacity:0.0; 
  stroke:#000000; stroke-linecap:round; stroke-linejoin:round; stroke-opacity:1.0; stroke-opacity:1.0; stroke-width:120" 
   transform="translate(0 0) scale(1 1)">
<path d="M55406 24486 L55406 24886" /> 
<path d="M55406 24886 L54606 24631" /> 
<g style = "stroke-linecap:round;" > 
<path d="M54606 24631 L54606 24631" /> 
</g></g>
<g style="fill:#000000; fill-opacity:0.0; 
  stroke:#000000; stroke-linecap:round; stroke-linejoin:round; stroke-opacity:1.0; stroke-opacity:1.0; stroke-width:120" 
   transform="translate(0 0) scale(1 1)">
<path d="M55064 25201 L55102 25143" /> 
<path d="M55102 25143 L55141 25115" /> 
<path d="M55141 25115 L55217 25086" /> 
<path d="M55217 25086 L55255 25085" /> 
<path d="M55255 25085 L55331 25114" /> 
<path d="M55331 25114 L55369 25142" /> 
<path d="M55369 25142 L55407 25200" /> 
<path d="M55407 25200 L55407 25314" /> 
<path d="M55407 25314 L55369 25371" /> 
<path d="M55369 25371 L55331 25400" /> 
<path d="M55331 25400 L55255 25428" /> 
<path d="M55255 25428 L55217 25429" /> 
<path d="M55217 25429 L55141 25401" /> 
<path d="M55141 25401 L55102 25372" /> 
<path d="M55102 25372 L55064 25315" /> 
<path d="M55064 25315 L55064 25201" /> 
<path d="M55064 25201 L55026 25143" /> 
<path d="M55026 25143 L54988 25115" /> 
<path d="M54988 25115 L54912 25086" /> 
<path d="M54912 25086 L54760 25086" /> 
<path d="M54760 25086 L54683 25115" /> 
<path d="M54683 25115 L54645 25144" /> 
<path d="M54645 25144 L54607 25202" /> 
<path d="M54607 25202 L54607 25316" /> 
<path d="M54607 25316 L54645 25373" /> 
<path d="M54645 25373 L54683 25401" /> 
<path d="M54683 25401 L54760 25429" /> 
<path d="M54760 25429 L54912 25429" /> 
<path d="M54912 25429 L54988 25401" /> 
<path d="M54988 25401 L55026 25372" /> 
<path d="M55026 25372 L55064 25315" /> 
<g style = "stroke-linecap:round;" > 
<path d="M55064 25315 L55064 25315" /> 
</g></g>
<g style="fill:#000000; fill-opacity:0.0; 
  stroke:#000000; stroke-linecap:round; stroke-linejoin:round; stroke-opacity:1.0; stroke-opacity:1.0; stroke-width:120" 
   transform="translate(0 0) scale(1 1)">
<path d="M54646 25715 L54608 25715" /> 
<path d="M54608 25715 L54532 25687" /> 
<path d="M54532 25687 L54494 25658" /> 
<g style = "stroke-linecap:round;" > 
<path d="M54494 25658 L54494 25658" /> 
</g></g>
<g style="fill:#000000; fill-opacity:0.0; 
  stroke:#000000; stroke-linecap:round; stroke-linejoin:round; stroke-opacity:1.0; stroke-opacity:1.0; stroke-width:120" 
   transform="translate(0 0) scale(1 1)">
<path d="M55408 25914 L55409 26314" /> 
<path d="M55409 26314 L54608 26059" /> 
<g style = "stroke-linecap:round;" > 
<path d="M54608 26059 L54608 26059" /> 
</g></g>
<g style="fill:#000000; fill-opacity:0.0; 
  stroke:#000000; stroke-linecap:round; stroke-linejoin:round; stroke-opacity:1.0; stroke-opacity:1.0; stroke-width:120" 
   transform="translate(0 0) scale(1 1)">
<path d="M55144 26800 L54610 26801" /> 
<g style = "stroke-linecap:round;" > 
<path d="M54610 26801 L54610 26801" /> 
</g></g>
<g style="fill:#000000; fill-opacity:0.0; 
  stroke:#000000; stroke-linecap:round; stroke-linejoin:round; stroke-opacity:1.0; stroke-opacity:1.0; stroke-width:120" 
   transform="translate(0 0) scale(1 1)">
<path d="M55447 26656 L54876 26514" /> 
<path d="M54876 26514 L54877 26886" /> 
<g style = "stroke-linecap:round;" > 
<path d="M54877 26886 L54877 26886" /> 
</g></g>
<g style="fill:#000000; fill-opacity:0.0; 
  stroke:#000000; stroke-linecap:round; stroke-linejoin:round; stroke-opacity:1.0; stroke-opacity:1.0; stroke-width:120" 
   transform="translate(0 0) scale(1 1)">
<path d="M55410 27227 L55410 27284" /> 
<path d="M55410 27284 L55373 27341" /> 
<path d="M55373 27341 L55335 27370" /> 
<path d="M55335 27370 L55259 27399" /> 
<path d="M55259 27399 L55106 27428" /> 
<path d="M55106 27428 L54916 27428" /> 
<path d="M54916 27428 L54764 27400" /> 
<path d="M54764 27400 L54687 27371" /> 
<path d="M54687 27371 L54649 27342" /> 
<path d="M54649 27342 L54610 27286" /> 
<path d="M54610 27286 L54610 27229" /> 
<path d="M54610 27229 L54648 27171" /> 
<path d="M54648 27171 L54686 27142" /> 
<path d="M54686 27142 L54763 27114" /> 
<path d="M54763 27114 L54915 27085" /> 
<path d="M54915 27085 L55105 27085" /> 
<path d="M55105 27085 L55258 27113" /> 
<path d="M55258 27113 L55334 27141" /> 
<path d="M55334 27141 L55372 27170" /> 
<path d="M55372 27170 L55410 27227" /> 
</g>
<g style="fill:#000000; fill-opacity:0.0; 
  stroke:#000000; stroke-linecap:round; stroke-linejoin:round; stroke-opacity:1.0; stroke-opacity:1.0; stroke-width:120" 
   transform="translate(0 0) scale(1 1)">
<path d="M54612 28143 L55146 28142" /> 
<g style = "stroke-linecap:round;" > 
<path d="M55146 28142 L55146 28142" /> 
</g></g>
<g style="fill:#000000; fill-opacity:0.0; 
  stroke:#000000; stroke-linecap:round; stroke-linejoin:round; stroke-opacity:1.0; stroke-opacity:1.0; stroke-width:120" 
   transform="translate(0 0) scale(1 1)">
<path d="M55069 28142 L55107 28170" /> 
<path d="M55107 28170 L55146 28228" /> 
<path d="M55146 28228 L55146 28313" /> 
<path d="M55146 28313 L55107 28370" /> 
<path d="M55107 28370 L55031 28399" /> 
<path d="M55031 28399 L54612 28400" /> 
<g style = "stroke-linecap:round;" > 
<path d="M54612 28400 L54612 28400" /> 
</g></g>
<g style="fill:#000000; fill-opacity:0.0; 
  stroke:#000000; stroke-linecap:round; stroke-linejoin:round; stroke-opacity:1.0; stroke-opacity:1.0; stroke-width:120" 
   transform="translate(0 0) scale(1 1)">
<path d="M55031 28399 L55107 28428" /> 
<path d="M55107 28428 L55147 28485" /> 
<path d="M55147 28485 L55147 28570" /> 
<path d="M55147 28570 L55108 28628" /> 
<path d="M55108 28628 L55032 28656" /> 
<path d="M55032 28656 L54613 28657" /> 
<g style = "stroke-linecap:round;" > 
<path d="M54613 28657 L54613 28657" /> 
</g></g>
<g style="fill:#000000; fill-opacity:0.0; 
  stroke:#000000; stroke-linecap:round; stroke-linejoin:round; stroke-opacity:1.0; stroke-opacity:1.0; stroke-width:120" 
   transform="translate(0 0) scale(1 1)">
<path d="M54613 28943 L55147 28942" /> 
<g style = "stroke-linecap:round;" > 
<path d="M55147 28942 L55147 28942" /> 
</g></g>
<g style="fill:#000000; fill-opacity:0.0; 
  stroke:#000000; stroke-linecap:round; stroke-linejoin:round; stroke-opacity:1.0; stroke-opacity:1.0; stroke-width:120" 
   transform="translate(0 0) scale(1 1)">
<path d="M55070 28942 L55108 28970" /> 
<path d="M55108 28970 L55148 29028" /> 
<path d="M55148 29028 L55148 29113" /> 
<path d="M55148 29113 L55109 29170" /> 
<path d="M55109 29170 L55033 29199" /> 
<path d="M55033 29199 L54614 29200" /> 
<g style = "stroke-linecap:round;" > 
<path d="M54614 29200 L54614 29200" /> 
</g></g>
<g style="fill:#000000; fill-opacity:0.0; 
  stroke:#000000; stroke-linecap:round; stroke-linejoin:round; stroke-opacity:1.0; stroke-opacity:1.0; stroke-width:120" 
   transform="translate(0 0) scale(1 1)">
<path d="M55033 29199 L55109 29228" /> 
<path d="M55109 29228 L55148 29285" /> 
<path d="M55148 29285 L55148 29370" /> 
<path d="M55148 29370 L55109 29428" /> 
<path d="M55109 29428 L55033 29456" /> 
<path d="M55033 29456 L54614 29457" /> 
<g style = "stroke-linecap:round;" > 
<path d="M54614 29457 L54614 29457" /> 
</g></g>
<g style="fill:#000000; fill-opacity:0.0; 
  stroke:#000000; stroke-linecap:round; stroke-linejoin:round; stroke-opacity:1.0; stroke-opacity:1.0; stroke-width:150" 
   transform="translate(0 0) scale(1 1)">
<path d="M54249 11500 L54249 42500" /> 
<path d="M52000 11500 L55619 11500" /> 
<path d="M52000 42500 L55619 42500" /> 
<path d="M54019 42057 L54249 42500" /> 
<path d="M54249 42500 L54479 42057" /> 
<path d="M54019 11943 L54249 11500" /> 
<path d="M54249 11500 L54479 11943" /> 
</g>
<g style="fill:#000000; fill-opacity:0.0; 
  stroke:#000000; stroke-linecap:round; stroke-linejoin:round; stroke-opacity:1.0; stroke-opacity:1.0; stroke-width:0" 
   transform="translate(0 0) scale(1 1)">
<path d="M32498 45935 L32502 45935" /> 
<path d="M32500 45933 L32500 45937" /> 
</g>
<g style="fill:#000000; fill-opacity:0.0; 
  stroke:#000000; stroke-linecap:round; stroke-linejoin:round; stroke-opacity:1.0; stroke-opacity:1.0; stroke-width:120" 
   transform="translate(0 0) scale(1 1)">
<path d="M30072 46259 L30187 46259" /> 
<path d="M30187 46259 L30244 46221" /> 
<path d="M30244 46221 L30272 46183" /> 
<path d="M30272 46183 L30330 46068" /> 
<path d="M30330 46068 L30358 45916" /> 
<path d="M30358 45916 L30358 45611" /> 
<path d="M30358 45611 L30330 45535" /> 
<path d="M30330 45535 L30301 45497" /> 
<path d="M30301 45497 L30244 45459" /> 
<path d="M30244 45459 L30130 45459" /> 
<path d="M30130 45459 L30072 45497" /> 
<path d="M30072 45497 L30044 45535" /> 
<path d="M30044 45535 L30015 45611" /> 
<path d="M30015 45611 L30015 45802" /> 
<path d="M30015 45802 L30044 45878" /> 
<path d="M30044 45878 L30072 45916" /> 
<path d="M30072 45916 L30130 45954" /> 
<path d="M30130 45954 L30244 45954" /> 
<path d="M30244 45954 L30301 45916" /> 
<path d="M30301 45916 L30330 45878" /> 
<path d="M30330 45878 L30358 45802" /> 
<g style = "stroke-linecap:round;" > 
<path d="M30358 45802 L30358 45802" /> 
</g></g>
<g style="fill:#000000; fill-opacity:0.0; 
  stroke:#000000; stroke-linecap:round; stroke-linejoin:round; stroke-opacity:1.0; stroke-opacity:1.0; stroke-width:120" 
   transform="translate(0 0) scale(1 1)">
<path d="M30643 46259 L30758 46259" /> 
<path d="M30758 46259 L30815 46221" /> 
<path d="M30815 46221 L30843 46183" /> 
<path d="M30843 46183 L30901 46068" /> 
<path d="M30901 46068 L30929 45916" /> 
<path d="M30929 45916 L30929 45611" /> 
<path d="M30929 45611 L30901 45535" /> 
<path d="M30901 45535 L30872 45497" /> 
<path d="M30872 45497 L30815 45459" /> 
<path d="M30815 45459 L30701 45459" /> 
<path d="M30701 45459 L30643 45497" /> 
<path d="M30643 45497 L30615 45535" /> 
<path d="M30615 45535 L30586 45611" /> 
<path d="M30586 45611 L30586 45802" /> 
<path d="M30586 45802 L30615 45878" /> 
<path d="M30615 45878 L30643 45916" /> 
<path d="M30643 45916 L30701 45954" /> 
<path d="M30701 45954 L30815 45954" /> 
<path d="M30815 45954 L30872 45916" /> 
<path d="M30872 45916 L30901 45878" /> 
<path d="M30901 45878 L30929 45802" /> 
<g style = "stroke-linecap:round;" > 
<path d="M30929 45802 L30929 45802" /> 
</g></g>
<g style="fill:#000000; fill-opacity:0.0; 
  stroke:#000000; stroke-linecap:round; stroke-linejoin:round; stroke-opacity:1.0; stroke-opacity:1.0; stroke-width:120" 
   transform="translate(0 0) scale(1 1)">
<path d="M31214 46221 L31214 46259" /> 
<path d="M31214 46259 L31186 46335" /> 
<path d="M31186 46335 L31157 46373" /> 
<g style = "stroke-linecap:round;" > 
<path d="M31157 46373 L31157 46373" /> 
</g></g>
<g style="fill:#000000; fill-opacity:0.0; 
  stroke:#000000; stroke-linecap:round; stroke-linejoin:round; stroke-opacity:1.0; stroke-opacity:1.0; stroke-width:120" 
   transform="translate(0 0) scale(1 1)">
<path d="M31586 45459 L31643 45459" /> 
<path d="M31643 45459 L31700 45497" /> 
<path d="M31700 45497 L31729 45535" /> 
<path d="M31729 45535 L31758 45611" /> 
<path d="M31758 45611 L31786 45764" /> 
<path d="M31786 45764 L31786 45954" /> 
<path d="M31786 45954 L31758 46106" /> 
<path d="M31758 46106 L31729 46183" /> 
<path d="M31729 46183 L31700 46221" /> 
<path d="M31700 46221 L31643 46259" /> 
<path d="M31643 46259 L31586 46259" /> 
<path d="M31586 46259 L31529 46221" /> 
<path d="M31529 46221 L31500 46183" /> 
<path d="M31500 46183 L31472 46106" /> 
<path d="M31472 46106 L31443 45954" /> 
<path d="M31443 45954 L31443 45764" /> 
<path d="M31443 45764 L31472 45611" /> 
<path d="M31472 45611 L31500 45535" /> 
<path d="M31500 45535 L31529 45497" /> 
<path d="M31529 45497 L31586 45459" /> 
</g>
<g style="fill:#000000; fill-opacity:0.0; 
  stroke:#000000; stroke-linecap:round; stroke-linejoin:round; stroke-opacity:1.0; stroke-opacity:1.0; stroke-width:120" 
   transform="translate(0 0) scale(1 1)">
<path d="M32300 45459 L32186 45459" /> 
<path d="M32186 45459 L32129 45497" /> 
<path d="M32129 45497 L32100 45535" /> 
<path d="M32100 45535 L32043 45649" /> 
<path d="M32043 45649 L32014 45802" /> 
<path d="M32014 45802 L32014 46106" /> 
<path d="M32014 46106 L32043 46183" /> 
<path d="M32043 46183 L32071 46221" /> 
<path d="M32071 46221 L32129 46259" /> 
<path d="M32129 46259 L32243 46259" /> 
<path d="M32243 46259 L32300 46221" /> 
<path d="M32300 46221 L32329 46183" /> 
<path d="M32329 46183 L32357 46106" /> 
<path d="M32357 46106 L32357 45916" /> 
<path d="M32357 45916 L32329 45840" /> 
<path d="M32329 45840 L32300 45802" /> 
<path d="M32300 45802 L32243 45764" /> 
<path d="M32243 45764 L32129 45764" /> 
<path d="M32129 45764 L32071 45802" /> 
<path d="M32071 45802 L32043 45840" /> 
<path d="M32043 45840 L32014 45916" /> 
<g style = "stroke-linecap:round;" > 
<path d="M32014 45916 L32014 45916" /> 
</g></g>
<g style="fill:#000000; fill-opacity:0.0; 
  stroke:#000000; stroke-linecap:round; stroke-linejoin:round; stroke-opacity:1.0; stroke-opacity:1.0; stroke-width:120" 
   transform="translate(0 0) scale(1 1)">
<path d="M32728 45459 L32785 45459" /> 
<path d="M32785 45459 L32842 45497" /> 
<path d="M32842 45497 L32871 45535" /> 
<path d="M32871 45535 L32900 45611" /> 
<path d="M32900 45611 L32928 45764" /> 
<path d="M32928 45764 L32928 45954" /> 
<path d="M32928 45954 L32900 46106" /> 
<path d="M32900 46106 L32871 46183" /> 
<path d="M32871 46183 L32842 46221" /> 
<path d="M32842 46221 L32785 46259" /> 
<path d="M32785 46259 L32728 46259" /> 
<path d="M32728 46259 L32671 46221" /> 
<path d="M32671 46221 L32642 46183" /> 
<path d="M32642 46183 L32614 46106" /> 
<path d="M32614 46106 L32585 45954" /> 
<path d="M32585 45954 L32585 45764" /> 
<path d="M32585 45764 L32614 45611" /> 
<path d="M32614 45611 L32642 45535" /> 
<path d="M32642 45535 L32671 45497" /> 
<path d="M32671 45497 L32728 45459" /> 
</g>
<g style="fill:#000000; fill-opacity:0.0; 
  stroke:#000000; stroke-linecap:round; stroke-linejoin:round; stroke-opacity:1.0; stroke-opacity:1.0; stroke-width:120" 
   transform="translate(0 0) scale(1 1)">
<path d="M33642 46259 L33642 45725" /> 
<g style = "stroke-linecap:round;" > 
<path d="M33642 45725 L33642 45725" /> 
</g></g>
<g style="fill:#000000; fill-opacity:0.0; 
  stroke:#000000; stroke-linecap:round; stroke-linejoin:round; stroke-opacity:1.0; stroke-opacity:1.0; stroke-width:120" 
   transform="translate(0 0) scale(1 1)">
<path d="M33642 45802 L33670 45764" /> 
<path d="M33670 45764 L33728 45725" /> 
<path d="M33728 45725 L33813 45725" /> 
<path d="M33813 45725 L33870 45764" /> 
<path d="M33870 45764 L33899 45840" /> 
<path d="M33899 45840 L33899 46259" /> 
<g style = "stroke-linecap:round;" > 
<path d="M33899 46259 L33899 46259" /> 
</g></g>
<g style="fill:#000000; fill-opacity:0.0; 
  stroke:#000000; stroke-linecap:round; stroke-linejoin:round; stroke-opacity:1.0; stroke-opacity:1.0; stroke-width:120" 
   transform="translate(0 0) scale(1 1)">
<path d="M33899 45840 L33928 45764" /> 
<path d="M33928 45764 L33985 45725" /> 
<path d="M33985 45725 L34070 45725" /> 
<path d="M34070 45725 L34128 45764" /> 
<path d="M34128 45764 L34156 45840" /> 
<path d="M34156 45840 L34156 46259" /> 
<g style = "stroke-linecap:round;" > 
<path d="M34156 46259 L34156 46259" /> 
</g></g>
<g style="fill:#000000; fill-opacity:0.0; 
  stroke:#000000; stroke-linecap:round; stroke-linejoin:round; stroke-opacity:1.0; stroke-opacity:1.0; stroke-width:120" 
   transform="translate(0 0) scale(1 1)">
<path d="M34442 46259 L34442 45725" /> 
<g style = "stroke-linecap:round;" > 
<path d="M34442 45725 L34442 45725" /> 
</g></g>
<g style="fill:#000000; fill-opacity:0.0; 
  stroke:#000000; stroke-linecap:round; stroke-linejoin:round; stroke-opacity:1.0; stroke-opacity:1.0; stroke-width:120" 
   transform="translate(0 0) scale(1 1)">
<path d="M34442 45802 L34470 45764" /> 
<path d="M34470 45764 L34528 45725" /> 
<path d="M34528 45725 L34613 45725" /> 
<path d="M34613 45725 L34670 45764" /> 
<path d="M34670 45764 L34699 45840" /> 
<path d="M34699 45840 L34699 46259" /> 
<g style = "stroke-linecap:round;" > 
<path d="M34699 46259 L34699 46259" /> 
</g></g>
<g style="fill:#000000; fill-opacity:0.0; 
  stroke:#000000; stroke-linecap:round; stroke-linejoin:round; stroke-opacity:1.0; stroke-opacity:1.0; stroke-width:120" 
   transform="translate(0 0) scale(1 1)">
<path d="M34699 45840 L34728 45764" /> 
<path d="M34728 45764 L34785 45725" /> 
<path d="M34785 45725 L34870 45725" /> 
<path d="M34870 45725 L34928 45764" /> 
<path d="M34928 45764 L34956 45840" /> 
<path d="M34956 45840 L34956 46259" /> 
<g style = "stroke-linecap:round;" > 
<path d="M34956 46259 L34956 46259" /> 
</g></g>
<g style="fill:#000000; fill-opacity:0.0; 
  stroke:#000000; stroke-linecap:round; stroke-linejoin:round; stroke-opacity:1.0; stroke-opacity:1.0; stroke-width:150" 
   transform="translate(0 0) scale(1 1)">
<path d="M13000 45250 L52000 45250" /> 
<path d="M13000 42500 L13000 46620" /> 
<path d="M52000 42500 L52000 46620" /> 
<path d="M51557 45480 L52000 45250" /> 
<path d="M51557 45020 L52000 45250" /> 
<path d="M13000 45250 L13443 45480" /> 
<path d="M13000 45250 L13443 45020" /> 
</g>
<g style="fill:#000000; fill-opacity:0.0; 
  stroke:#000000; stroke-linecap:round; stroke-linejoin:round; stroke-opacity:1.0; stroke-opacity:1.0; stroke-width:150" 
   transform="translate(0 0) scale(1 1)">
<ellipse cx="49000" cy="13500" rx="707" ry="707"  /> 
</g>
<g style="fill:#000000; fill-opacity:0.0; 
  stroke:#000000; stroke-linecap:round; stroke-linejoin:round; stroke-opacity:1.0; stroke-opacity:1.0; stroke-width:150" 
   transform="translate(0 0) scale(1 1)">
<ellipse cx="49000" cy="40500" rx="707" ry="707"  /> 
</g>
<g style="fill:#000000; fill-opacity:0.0; 
  stroke:#000000; stroke-linecap:round; stroke-linejoin:round; stroke-opacity:1.0; stroke-opacity:1.0; stroke-width:150" 
   transform="translate(0 0) scale(1 1)">
<ellipse cx="18500" cy="40500" rx="707" ry="707"  /> 
</g>
<g style="fill:#000000; fill-opacity:0.0; 
  stroke:#000000; stroke-linecap:round; stroke-linejoin:round; stroke-opacity:1.0; stroke-opacity:1.0; stroke-width:150" 
   transform="translate(0 0) scale(1 1)">
<ellipse cx="18500" cy="13500" rx="707" ry="707"  /> 
</g> 
</svg> 
